/* XPM */
static const char * help_xpm[] = {
"16 16 59 1",
" 	c None",
".	c #E5E4E8",
"+	c #B7B7B7",
"@	c #FFFFFF",
"#	c #AEAEAE",
"$	c #353535",
"%	c #090909",
"&	c #000000",
"*	c #080808",
"=	c #323232",
"-	c #A6A6A6",
";	c #8B8B8B",
">	c #0D0D0D",
",	c #010101",
"'	c #838383",
")	c #D3D3D3",
"!	c #0F0F0F",
"~	c #020202",
"{	c #898989",
"]	c #EAEAEA",
"^	c #F4F4F4",
"/	c #B9B9B9",
"(	c #252525",
"_	c #0E0E0E",
":	c #8F8F8F",
"<	c #575757",
"[	c #797979",
"}	c #808080",
"|	c #C9C9C9",
"1	c #E4E4E4",
"2	c #5C5C5C",
"3	c #F3F3F3",
"4	c #707070",
"5	c #222222",
"6	c #EBEBEB",
"7	c #CFCFCF",
"8	c #3E3E3E",
"9	c #161616",
"0	c #BCBCBC",
"a	c #EFEFEF",
"b	c #313131",
"c	c #C0C0C0",
"d	c #858585",
"e	c #262626",
"f	c #D9D9D9",
"g	c #484848",
"h	c #9B9B9B",
"i	c #929292",
"j	c #606060",
"k	c #676767",
"l	c #D5D5D5",
"m	c #C3C3C3",
"n	c #A8A8A8",
"o	c #ACACAC",
"p	c #E8E8E8",
"q	c #B8B8B8",
"r	c #A4A4A4",
"s	c #7F7F7F",
"t	c #DCDCDC",
".......++.......",
"..@@#$%&&*=-@...",
"..@;&&&%>,&&'@..",
"..)!&~{]^/(&_)..",
"..:&&<@@@@[&&}..",
"....|1@@@@2&&:..",
".....@@@34&&56..",
"......@78&&90...",
"......ab&&5c....",
"......d&&ef.....",
"......g&&h......",
"......ijkl......",
"......mnop......",
"......g&&q......",
"......g&&q......",
"......r[st......"};
