/* XPM */
static char * help_xpm[] = {
"18 18 58 1",
" 	c #E5E4E8",
".	c #B7B7B7",
"+	c #FFFFFF",
"@	c #AEAEAE",
"#	c #353535",
"$	c #090909",
"%	c #000000",
"&	c #080808",
"*	c #323232",
"=	c #A6A6A6",
"-	c #8B8B8B",
";	c #0D0D0D",
">	c #010101",
",	c #838383",
"'	c #D3D3D3",
")	c #0F0F0F",
"!	c #020202",
"~	c #898989",
"{	c #EAEAEA",
"]	c #F4F4F4",
"^	c #B9B9B9",
"/	c #252525",
"(	c #0E0E0E",
"_	c #8F8F8F",
":	c #575757",
"<	c #797979",
"[	c #808080",
"}	c #C9C9C9",
"|	c #E4E4E4",
"1	c #5C5C5C",
"2	c #F3F3F3",
"3	c #707070",
"4	c #222222",
"5	c #EBEBEB",
"6	c #CFCFCF",
"7	c #3E3E3E",
"8	c #161616",
"9	c #BCBCBC",
"0	c #EFEFEF",
"a	c #313131",
"b	c #C0C0C0",
"c	c #858585",
"d	c #262626",
"e	c #D9D9D9",
"f	c #484848",
"g	c #9B9B9B",
"h	c #929292",
"i	c #606060",
"j	c #676767",
"k	c #D5D5D5",
"l	c #C3C3C3",
"m	c #A8A8A8",
"n	c #ACACAC",
"o	c #E8E8E8",
"p	c #B8B8B8",
"q	c #A4A4A4",
"r	c #7F7F7F",
"s	c #DCDCDC",
"                  ",
"        ..        ",
"   ++@#$%%&*=+    ",
"   +-%%%$;>%%,+   ",
"   ')%!~{]^/%('   ",
"   _%%:++++<%%[   ",
"     }|++++1%%_   ",
"      +++23%%45   ",
"       +67%%89    ",
"       0a%%4b     ",
"       c%%de      ",
"       f%%g       ",
"       hijk       ",
"       lmno       ",
"       f%%p       ",
"       f%%p       ",
"       q<rs       ",
"       ++++       "};
