/* XPM */
static const char * log_xpm[] = {
"18 18 3 1",
" 	c None",
".	c #E5E4E8",
"+	c #000000",
"..................",
"..+.+.+.+.+.+.+...",
"..++++++++++++++..",
"..+.+.+.+.+.+.+...",
"..................",
"..................",
"..................",
"..+.+.+.+.+.+.+...",
"..++++++++++++++..",
"..+.+.+.+.+.+.+...",
"..................",
"..................",
"..................",
"..+.+.+.+.+.+.+...",
"..++++++++++++++..",
"..+.+.+.+.+.+.+...",
"..................",
".................."};
