/* XPM */
static const char *spin_xpm[] = {
/* columns rows colors chars-per-pixel */
"16 22 61 1 ",
"  c #001C00",
". c #255849",
"X c #25584A",
"o c #24584B",
"O c #25584B",
"+ c #24594C",
"@ c #25594C",
"# c #245A4C",
"$ c #255A4C",
"% c #265A4C",
"& c #265B4C",
"* c #275C4C",
"= c #2B6155",
"- c #2B6254",
"; c #2B6255",
": c #2B6355",
"> c #2C6355",
", c #2E6354",
"< c #2D6459",
"1 c #2D6659",
"2 c #2F6659",
"3 c #306659",
"4 c #316659",
"5 c #31695B",
"6 c #32695B",
"7 c #336E64",
"8 c #377368",
"9 c #37766C",
"0 c #37766E",
"q c #387368",
"w c #387468",
"e c #397468",
"r c #3A766B",
"t c #38766C",
"y c #39766C",
"u c #38776C",
"i c #39776C",
"p c #3A766C",
"a c #3C776C",
"s c #3A796F",
"d c #3B796F",
"f c #3D796F",
"g c #3C7A6F",
"h c #3D7A6F",
"j c #3B7A71",
"k c #3C7A71",
"l c #3D7A71",
"z c #407B6F",
"x c #407C71",
"c c #407D71",
"v c #427F74",
"b c #407F76",
"n c #448175",
"m c #448275",
"M c #478577",
"N c #478677",
"B c #488677",
"V c #4A8677",
"C c #4B8778",
"Z c #4D897C",
"A c #7CC186",
/* pixels */
"                ",
"  Mmzln8wwqwq7  ",
" MZCMMCmMmnclv3 ",
" mCVMMnmmclhlv5 ",
" hMMmmvAcsllll5 ",
" 5mmmmAAAsjjjl5 ",
" 3vvvAAAAAjjjl5 ",
" 3vvAAAhAAAjjl5 ",
" 3vvvhhhhsjjjj5 ",
" 3vvvhhlhsjjjj5 ",
" .***%@@@+++@@. ",
" @*****.@@+*+@. ",
" 3vvvchatttv9t6 ",
" 3vvvhhasttvtt6 ",
" 3vvAAAaAAAvtt6 ",
" 5mmmAAAAAtmtt6 ",
" 3vvvcAAA8sn996 ",
" 3vvvhhAs88n996 ",
" <taaaahtsta90= ",
" =5aawattt9a91= ",
"  ,,333,33>3==  ",
"                "
};
